<?xml version="1.0" standalone="no"?>
<!DOCTYPE svg PUBLIC "-//W3C//DTD SVG 20010904//EN"
 "http://www.w3.org/TR/2001/REC-SVG-20010904/DTD/svg10.dtd">
<svg version="1.0" xmlns="http://www.w3.org/2000/svg"
 width="500.000000pt" height="500.000000pt" viewBox="0 0 500.000000 500.000000"
 preserveAspectRatio="xMidYMid meet">

<g transform="translate(0.000000,500.000000) scale(0.100000,-0.100000)"
fill="#000000" stroke="none">
<path d="M2950 4005 c-100 -14 -204 -38 -245 -57 l-25 -11 0 -164 c0 -89 3
-163 6 -163 4 0 24 16 45 35 83 74 186 109 378 126 215 19 346 -14 385 -95 29
-62 16 -151 -31 -207 -23 -27 -522 -369 -539 -369 -4 0 -4 39 -1 86 8 114 35
169 96 201 l44 23 -206 0 -207 0 -2 -482 -3 -483 -26 -3 c-23 -3 -57 41 -375
483 l-349 485 -280 0 -280 0 40 -23 c52 -30 82 -76 90 -140 3 -29 5 -272 3
-542 -4 -570 0 -548 -97 -597 l-55 -28 320 0 319 1 -39 19 c-55 28 -84 57 -98
99 -13 43 -24 821 -11 821 4 -1 159 -211 343 -468 l336 -467 294 -2 c294 -3
295 -3 255 16 -23 10 -53 32 -67 49 -47 56 -51 107 -43 539 l8 393 28 0 29 0
0 -205 0 -205 440 0 440 0 0 203 0 202 -24 -51 c-27 -58 -62 -90 -116 -104
-23 -6 -145 -9 -300 -8 l-262 3 242 164 c133 90 266 186 296 213 72 66 122
166 133 266 25 239 -67 372 -304 438 -82 23 -450 29 -585 9z"/>
<path d="M2486 3391 c22 -10 50 -31 62 -46 l22 -28 0 47 0 46 -62 0 -63 0 41
-19z"/>
<path d="M1370 1631 c0 -174 1 -181 20 -181 19 0 20 7 20 147 0 124 2 145 13
133 8 -8 51 -75 96 -147 117 -188 121 -186 121 48 0 166 -1 180 -17 177 -16
-3 -19 -20 -23 -137 l-5 -133 -85 134 c-72 111 -90 134 -113 136 l-27 3 0
-180z"/>
<path d="M1757 1804 c-4 -4 -7 -85 -7 -181 l0 -173 25 0 25 0 -2 177 c-3 151
-5 178 -18 181 -9 1 -19 0 -23 -4z"/>
<path d="M1907 1803 c-4 -3 -7 -84 -7 -180 l0 -173 25 0 24 0 0 138 c-1 75 -1
141 0 147 1 5 42 -57 93 -138 75 -121 95 -147 115 -147 l23 0 0 180 c0 173 -1
180 -20 180 -19 0 -20 -7 -20 -135 0 -74 -3 -135 -7 -135 -5 0 -46 61 -93 135
-65 103 -90 135 -106 135 -11 0 -24 -3 -27 -7z"/>
<path d="M2290 1630 l0 -180 110 0 c91 0 110 3 110 15 0 12 -17 15 -90 15
l-90 0 0 70 0 70 80 0 c64 0 80 3 80 15 0 12 -16 15 -80 15 l-80 0 0 60 0 59
87 3 c74 3 88 6 91 21 3 15 -7 17 -107 17 l-111 0 0 -180z"/>
<path d="M2550 1790 c0 -18 7 -20 55 -20 l55 0 0 -160 c0 -153 1 -160 20 -160
19 0 20 7 20 160 l0 160 55 0 c48 0 55 2 55 20 0 19 -7 20 -130 20 -123 0
-130 -1 -130 -20z"/>
<path d="M2850 1793 c1 -10 18 -90 38 -178 l37 -160 29 0 c29 0 30 1 65 132
19 73 38 129 42 125 3 -4 21 -64 40 -134 33 -124 35 -128 61 -128 17 0 29 6
32 18 9 30 76 325 76 333 0 5 -8 9 -18 9 -16 0 -24 -23 -52 -145 -18 -80 -37
-142 -41 -138 -6 7 -79 264 -79 278 0 14 -39 2 -44 -12 -3 -10 -21 -76 -40
-147 -20 -71 -37 -130 -39 -132 -2 -2 -19 63 -37 146 -28 126 -37 150 -52 150
-11 0 -18 -7 -18 -17z"/>
<path d="M3410 1792 c-102 -50 -107 -261 -8 -322 44 -27 131 -27 175 0 49 30
68 73 68 160 0 61 -4 82 -23 111 -40 66 -137 89 -212 51z m141 -32 c31 -17 49
-64 49 -132 0 -77 -14 -107 -60 -131 -102 -52 -191 50 -161 184 13 60 49 89
107 89 25 0 54 -5 65 -10z"/>
<path d="M1889 1306 c-13 -6 -25 -22 -27 -34 -3 -18 5 -26 42 -42 33 -14 46
-25 46 -40 0 -16 -6 -20 -33 -20 -18 0 -38 5 -45 12 -7 7 -12 8 -12 2 0 -19
24 -34 55 -34 37 0 55 15 55 46 0 25 -10 34 -55 49 -20 7 -30 17 -30 30 0 24
39 33 62 13 14 -11 15 -11 12 1 -8 22 -43 31 -70 17z"/>
<path d="M1580 1230 c0 -47 4 -80 10 -80 6 0 10 16 10 35 0 33 2 35 35 35 19
0 35 5 35 10 0 6 -16 10 -36 10 -33 0 -35 2 -32 28 3 23 9 28 43 33 39 6 39 6
-12 8 l-53 1 0 -80z"/>
<path d="M1730 1243 c-13 -37 -25 -74 -28 -80 -2 -7 0 -13 6 -13 5 0 12 9 15
20 4 15 14 20 42 20 28 0 38 -5 42 -20 5 -19 23 -29 23 -12 0 4 -11 39 -23 78
-32 93 -49 95 -77 7z m60 -20 c0 -7 -11 -13 -25 -13 -29 0 -29 2 -13 48 l13
34 12 -28 c7 -16 12 -35 13 -41z"/>
<path d="M2010 1230 c0 -47 4 -80 10 -80 6 0 10 18 10 40 l0 40 40 0 40 0 0
-40 c0 -22 5 -40 10 -40 6 0 10 33 10 80 0 47 -4 80 -10 80 -5 0 -10 -13 -10
-30 0 -28 -2 -30 -40 -30 -38 0 -40 2 -40 30 0 17 -4 30 -10 30 -6 0 -10 -33
-10 -80z"/>
<path d="M2180 1230 c0 -47 4 -80 10 -80 6 0 10 33 10 80 0 47 -4 80 -10 80
-6 0 -10 -33 -10 -80z"/>
<path d="M2274 1302 c-37 -24 -43 -87 -13 -126 25 -32 77 -36 102 -8 24 26 31
75 17 103 -17 32 -29 39 -65 39 -16 0 -35 -4 -41 -8z m66 -12 c23 -13 34 -59
21 -93 -9 -22 -17 -27 -45 -27 -25 0 -38 6 -46 19 -16 31 -12 69 10 91 23 23
33 24 60 10z"/>
<path d="M2430 1230 c0 -96 18 -108 22 -14 l3 66 38 -66 c22 -36 43 -66 48
-66 5 0 8 37 7 83 l-1 82 -6 -65 -6 -65 -40 63 c-54 84 -65 81 -65 -18z"/>
<path d="M2660 1230 l0 -80 44 0 c48 0 76 19 76 50 0 11 -7 23 -16 28 -14 8
-14 12 -3 30 20 31 -3 52 -57 52 l-44 0 0 -80z m74 64 c22 -8 20 -31 -3 -44
-35 -18 -51 -12 -51 20 0 31 17 38 54 24z m16 -79 c20 -24 4 -45 -35 -45 -32
0 -35 2 -35 30 0 26 3 30 29 30 16 0 34 -7 41 -15z"/>
<path d="M2810 1231 c0 -47 4 -81 10 -81 6 0 10 16 10 35 0 32 2 35 29 35 25
0 31 -6 41 -35 6 -19 15 -35 20 -35 8 0 1 32 -15 73 -4 10 -3 17 5 17 7 0 10
13 8 33 -3 31 -4 32 -55 35 l-53 3 0 -80z m85 39 c0 -21 -5 -26 -32 -28 -29
-3 -33 0 -33 21 0 31 9 39 40 35 19 -2 25 -9 25 -28z"/>
<path d="M2983 1248 c-12 -35 -25 -71 -28 -80 -4 -10 -3 -18 3 -18 6 0 14 9
17 20 5 15 15 20 45 20 29 0 39 -4 43 -20 3 -11 10 -20 15 -20 6 0 -2 36 -16
80 -33 100 -49 104 -79 18z m55 -5 c11 -32 10 -33 -20 -33 -23 0 -29 3 -24 16
3 9 9 27 12 41 8 28 17 21 32 -24z"/>
<path d="M3120 1230 c0 -96 18 -108 22 -14 l3 66 38 -66 c22 -36 43 -66 48
-66 5 0 8 37 7 83 l-1 82 -6 -65 -6 -65 -40 63 c-54 84 -65 81 -65 -18z"/>
<path d="M3290 1230 l0 -80 44 0 c61 0 91 25 91 78 0 58 -25 82 -87 82 l-48 0
0 -80z m83 61 c33 -13 45 -63 23 -96 -12 -19 -25 -25 -51 -25 l-35 0 0 58 c0
75 8 84 63 63z"/>
</g>
</svg>
